<?xml version="1.0" encoding="UTF-8"?>
<svg width="30px" height="25px" viewBox="0 0 30 25" version="1.1" xmlns="http://www.w3.org/2000/svg" xmlns:xlink="http://www.w3.org/1999/xlink">
    <!-- Generator: Sketch 51.3 (57544) - http://www.bohemiancoding.com/sketch -->
    <title>Service Hub Icon</title>
    <desc>Created with Sketch.</desc>
    <defs></defs>
    <g id="Assets" stroke="none" stroke-width="1" fill="none" fill-rule="evenodd">
        <g id="Product-Logos" transform="translate(-385.000000, -68.000000)">
            <g id="Service-Hub-Wordmark" transform="translate(338.000000, 65.000000)">
                <g id="Copy">
                    <g id="Group-13">
                        <g id="ΘStyles/Logos/HubSpot/Hubs/_Service_Hub" transform="translate(47.000000, 0.000000)">
                            <g id="Service_Hub">
                                <rect id="Rectangle" x="0.909090909" y="0" width="29.0909091" height="30"></rect>
                                <path d="M18.3090909,3.75 C18.1493998,3.73898023 17.9962506,3.81715379 17.9079061,3.95478094 C17.8195615,4.09240809 17.8096027,4.26833178 17.8818182,4.415625 C18.0757623,4.80147907 18.2311088,5.2066934 18.3454545,5.625 C18.5078957,6.14580809 18.6145912,6.68338189 18.6636364,7.228125 C18.6807044,7.42932336 18.8256679,7.59414967 19.0181818,7.63125 C22.4545673,8.36792165 24.9858664,11.388117 25.1951242,15.0012099 C25.4043821,18.6143028 23.2396733,21.9237388 19.9127453,23.0769825 C16.5858172,24.2302261 12.922215,22.941111 10.9727273,19.93125 C10.9039584,19.8204228 10.7946686,19.7429678 10.6696916,19.7164851 C10.5447147,19.6900024 10.414664,19.716741 10.3090909,19.790625 C9.64945388,20.3313768 8.8238873,20.6107312 7.98181818,20.578125 C7.81222025,20.5663427 7.65041974,20.6531307 7.56240243,20.8030949 C7.47438511,20.9530592 7.47486114,21.1411366 7.56363636,21.290625 C9.62206884,25.0087646 13.4854516,27.2705041 17.6363636,27.1875 C23.9123266,27.3790737 29.150595,22.2877118 29.3363635,15.815625 C29.522132,9.34353815 24.5850539,3.94157387 18.3090909,3.75 Z" id="Path" fill="#33475B"></path>
                                <path d="M14.1727273,4.959375 C14.7775837,5.45259467 15.2242761,6.1223362 15.4545455,6.88125 C15.691871,7.62608404 15.7264601,8.42379475 15.5545455,9.1875 C15.3965303,9.94589148 15.0267955,10.640033 14.4909091,11.184375 L8.86363636,17.203125 C8.6917644,17.399512 8.44743476,17.5118747 8.19090909,17.5125 C7.93438342,17.5118747 7.69005378,17.399512 7.51818182,17.203125 L1.81818182,11.25 C1.28521506,10.6922034 0.916424867,9.99008364 0.754545455,9.225 C0.60304279,8.44347769 0.656391062,7.63442761 0.909090909,6.88125 C1.13878784,6.12925946 1.57447267,5.46182108 2.16363636,4.959375 C2.67628641,4.49528278 3.30733024,4.19267754 3.98181818,4.0875 C4.63498326,3.96299483 5.30826383,4.0146652 5.93636364,4.2375 C6.58213793,4.45753341 7.16581414,4.83735212 7.63636364,5.34375 L8.21818182,5.953125 L8.8,5.34375 C9.26703058,4.83744711 9.84775878,4.45751504 10.4909091,4.2375 C11.1191751,4.01549996 11.7922449,3.96384577 12.4454545,4.0875 C13.0878103,4.20940031 13.685326,4.51100812 14.1727273,4.959375 Z" id="Path" fill="#FF7A59" fill-rule="nonzero"></path>
                            </g>
                        </g>
                    </g>
                </g>
            </g>
        </g>
    </g>
</svg>