<?xml version="1.0" encoding="UTF-8"?>
<svg width="26px" height="27px" viewBox="0 0 26 27" version="1.1" xmlns="http://www.w3.org/2000/svg" xmlns:xlink="http://www.w3.org/1999/xlink">
    <!-- Generator: Sketch 51.3 (57544) - http://www.bohemiancoding.com/sketch -->
    <title>CMS Hub Icon</title>
    <desc>Created with Sketch.</desc>
    <defs>
        <polygon id="path-1" points="0.468375 0.169531904 13.8915 0.169531904 13.8915 12.1875 0.468375 12.1875"></polygon>
    </defs>
    <g id="Assets" stroke="none" stroke-width="1" fill="none" fill-rule="evenodd">
        <g id="Product-Logos" transform="translate(-613.000000, -66.000000)">
            <g id="CMS-Hub-Wordmark" transform="translate(577.000000, 65.000000)">
                <g id="Group-15">
                    <g id="ΘStyles/Logos/HubSpot/Hubs/_CMS_Hub" transform="translate(34.000000, 0.000000)">
                        <g id="CMS_Hub" transform="translate(2.812500, 1.875000)">
                            <g id="Group-3" transform="translate(11.250000, 13.554281)">
                                <mask id="mask-2" fill="white">
                                    <use xlink:href="#path-1"></use>
                                </mask>
                                <g id="Clip-2"></g>
                                <path d="M7.0824375,2.4796875 L1.1415,0.178125 C0.7899375,0.1171875 0.468375,0.388125 0.468375,0.744375 L0.468375,9.2775 C0.468375,9.5578125 0.670875,9.796875 0.9474375,9.84375 L7.0824375,12.18 C7.147125,12.1903125 7.21275,12.1903125 7.2774375,12.18 L13.413375,9.84375 C13.689,9.796875 13.8915,9.5578125 13.8915,9.2775 L13.8915,0.744375 C13.8915,0.388125 13.5699375,0.1171875 13.218375,0.178125 L7.2774375,2.4796875 C7.21275,2.4909375 7.147125,2.4909375 7.0824375,2.4796875" id="Fill-1" fill="#FF7A59" mask="url(#mask-2)"></path>
                            </g>
                            <path d="M8.7354375,19.1485313 C5.4898125,17.8444688 3.2904375,14.4863438 3.7704375,10.6772813 C4.2241875,7.07728125 7.17825,4.16634375 10.7848125,3.75759375 C15.628875,3.21009375 19.7323125,6.98446875 19.7323125,11.7188438 C19.7323125,12.0057188 19.6479375,12.1557187 19.851375,12.3582188 C20.172,12.6769688 23.0754375,11.2547813 23.0754375,11.2547813 C23.2723125,11.1788438 23.4016875,10.9800937 23.383875,10.7700938 C22.88325,4.53196875 17.5123125,-0.33084375 11.0679375,0.01790625 C5.117625,0.33946875 0.253875,5.27259375 0.010125,11.2275938 C-0.214875,16.7316563 3.362625,21.4247812 8.3266875,22.9247813 C8.623875,23.0147813 8.923875,22.7832187 8.9210625,22.4729063 C8.9154375,21.5682188 8.908875,19.9304063 8.907,19.3922813 C8.907,19.2816563 8.8385625,19.1897812 8.7354375,19.1485313" id="Fill-4" fill="#33475B"></path>
                        </g>
                    </g>
                </g>
            </g>
        </g>
    </g>
</svg>