<?xml version="1.0" encoding="UTF-8"?>
<svg width="24px" height="25px" viewBox="0 0 24 25" version="1.1" xmlns="http://www.w3.org/2000/svg" xmlns:xlink="http://www.w3.org/1999/xlink">
    <!-- Generator: Sketch 51.3 (57544) - http://www.bohemiancoding.com/sketch -->
    <title>Marketing Hub Icon</title>
    <desc>Created with Sketch.</desc>
    <defs></defs>
    <g id="Assets" stroke="none" stroke-width="1" fill="none" fill-rule="evenodd">
        <g id="Product-Logos" transform="translate(-133.000000, -68.000000)">
            <g id="Marketing-Hub-Wordmark" transform="translate(69.000000, 65.000000)">
                <g id="Copy">
                    <g id="Product-Icon">
                        <g id="ΘStyles/Logos/HubSpot/Hubs/_Marketing_Hub" transform="translate(62.000000, 0.000000)">
                            <g id="Marketing_Hub">
                                <rect id="Rectangle" x="0" y="0" width="30" height="30"></rect>
                                <path d="M21.609375,18.525 C20.3226731,21.6102561 17.2527009,23.5696536 13.9125,23.4375 C9.98952866,23.2369721 6.79145447,20.2200402 6.36278357,16.3154074 C5.93411268,12.4107747 8.40147359,8.77186181 12.1875,7.725 L12.384375,7.65 L16.06875,5.625 C16.425628,5.4306836 16.6166937,5.02858101 16.5419369,4.62916622 C16.4671801,4.22975144 16.1436225,3.92396872 15.740625,3.871875 C14.7728645,3.74540303 13.7927605,3.74540303 12.825,3.871875 C7.00660847,4.6322106 2.62086877,9.53626498 2.5125,15.403125 C2.48201711,21.4419205 7.0455291,26.5150902 13.0538523,27.1217464 C19.0621756,27.7284026 24.5477084,23.669878 25.725,17.746875 C25.7945009,17.3850037 25.6455696,17.015977 25.3443612,16.803716 C25.0431528,16.5914551 24.6455334,16.5753286 24.328125,16.7625 L22.021875,18.1125 C21.8440054,18.2026324 21.6995074,18.3471304 21.609375,18.525 Z" id="Path" fill="#33475B"></path>
                                <path d="M24.95625,12.459375 L23.3625,11.98125 L25.640625,4.35 C25.7049729,4.17248259 25.6516549,3.97367282 25.5071156,3.85217602 C25.3625763,3.73067922 25.1575599,3.71233831 24.99375,3.80625 L14.728125,9.525 C14.566702,9.61641044 14.4743729,9.79441809 14.4926308,9.97902553 C14.5108886,10.163633 14.6362983,10.320106 14.8125,10.378125 L16.40625,10.85625 L14.128125,18.4875 C14.0637771,18.6650174 14.1170951,18.8638272 14.2616344,18.985324 C14.4061737,19.1068208 14.6111901,19.1251617 14.775,19.03125 L25.03125,13.3125 C25.1931127,13.2226705 25.2869479,13.0459943 25.2707363,12.8615871 C25.2545247,12.6771798 25.131303,12.5195855 24.95625,12.459375 Z" id="Path" fill="#FF7A59"></path>
                            </g>
                        </g>
                    </g>
                </g>
            </g>
        </g>
    </g>
</svg>